<?xml version="1.0" encoding="UTF-8"?>
<svg id="Layer_1" data-name="Layer 1" xmlns="http://www.w3.org/2000/svg" viewBox="0 0 361.73 177.42">
  <defs>
    <style>
      .cls-1 {
        fill: #cbaa5c;
      }

      .cls-1, .cls-2, .cls-3 {
        fill-rule: evenodd;
      }

      .cls-2 {
        fill: #b3654f;
      }

      .cls-3 {
        fill: #4f7a63;
      }
    </style>
  </defs>
  <path class="cls-1" d="M189.95,177.42c-4.05,0-8.42-.24-11.57-.54.74-.51,1.61-1.08,2.61-1.71,14.75-9.08,26.54-21.08,36.03-36.69,6.66-11.03,10.16-19.3,13.85-32.79,6.8-24.81,6.01-48.67-2.33-70.9-.63-1.72-1.19-3.3-1.65-4.64,29.73,13.71,44.9,45.54,38.69,81.35-3.41,19.79-12.53,36.08-27.12,48.4-11.2,9.59-28.92,16.43-45.16,17.44-.94.05-2.07.08-3.35.08ZM145.73,176.17c-2.83,0-5.52-.35-8.01-1.03-.49-.13-.94-.27-1.36-.41.29-.21.62-.43.98-.66,6-3.87,10.58-8.91,12.93-14.19,1.02-2.29,1.91-3.19,6.31-5.16,15.67-7.25,30.66-23.33,39.16-41.98,4.23-9.17,9.15-30.27,9.24-39.6.04-8.48-2.38-23.55-4.78-29.86-6.12-15.78-17.24-24.83-30.51-24.83-5.54,0-11.28,1.54-17.06,4.59-10.87,5.69-21,15.6-29.3,28.67-3.05,4.87-4.76,6.61-8.73,8.88-.72.41-1.82,1.04-2.69,1.49-.78-2.23-2.34-5.79-3.41-8.08-1.54-3.34-2.39-6.38-2.46-7.28.97-2.81,8.5-13.79,14.17-20.18C134.99,10.17,151.36,1.01,167.52.07c.69-.05,1.4-.07,2.12-.07,8.18,0,18.69,2.82,24.99,6.7,15.57,9.62,26.22,28.76,29.21,52.51,3.02,23.96-2.11,49.79-14.08,70.85-14.97,26.29-42.5,46.11-64.04,46.11h0ZM248.14,165.55c24.95-23.39,35.19-59.94,26.17-93.66-1.15-4.12-4.49-12.02-7.44-17.64-1.49-2.81-3.29-6.2-3.76-7.72.68-.15,1.73-.28,2.25-.34l.11-.02c.06,0,.14,0,.24,0,1.41,0,4.81.62,7.84,1.63,8.96,2.79,16.88,10.19,22.33,20.84,8.07,15.75,9.56,36.13,3.88,53.18-5.89,17.87-18.4,30.67-38.26,39.16-4.07,1.75-9.25,3.45-13.37,4.57ZM310.13,125.69c4.59-13.29,4.88-31.75.73-47.21-2.3-8.48-8.85-21.05-14.31-27.46-1.2-1.45-2.09-2.7-2.61-3.53,1.27-.84,3.81-2,5.81-2.26.12-.02.24-.02.38-.02,1.38,0,4.27.48,6.91,1.38,13.05,4.25,23.58,19.59,25.06,36.49,1.47,15.2-7.73,32.96-21.97,42.6ZM342.99,85.56c-.03-.33-.05-.68-.08-1.05-1.2-17.73-9.21-32.75-23.16-43.46-1.52-1.13-2.76-2.26-3.47-3.01.99-.74,3.22-1.87,6.42-2.42.73-.12,1.49-.19,2.26-.19,5.06,0,10.65,2.64,15.73,7.44,12.27,11.62,13.92,29.24,3.82,40.99-.55.63-1.06,1.2-1.53,1.7ZM358.91,52.17c-.6-1.34-1.44-3.07-2.59-5.33-4.75-8.94-11.4-15.57-18.73-18.7-1.01-.43-2.79-1.19-3.46-1.67.25-.74,1.14-2.29,1.65-3.17,3.03-5.26,5.28-7.32,9.25-8.46.8-.24,1.76-.36,2.79-.36,2.85,0,5.94.92,7.87,2.34,2.38,1.79,5.35,7.61,5.93,13.41.59,6.44-1.11,16.52-2.7,21.93Z"/>
  <path class="cls-3" d="M64.9,69.07c-3.3-11.96-3.51-28.38-.55-42.85l.17-.83c.44-2.25.9-4.56,1.3-5.64,1.18.61,3.66,2.52,6.26,4.52l.62.48c12.8,9.8,24.37,25.73,28.8,39.66.67,2.2,1.16,4.12,1.47,5.48-1.04-.22-2.44-.59-4.18-1.1-4.81-1.37-9.15-2.03-13.28-2.03-4.89,0-9.69.89-15.11,2.81l-4.89,1.66-.6-2.16Z"/>
  <path class="cls-3" d="M42.52,90.55c-.39,0-.81,0-1.29-.02q-3.68-.14-5.83-2.76c-5.3-6.26-13.98-23.28-17.23-33.75-.13-.4-.21-.71-.27-.94.29-.03.7-.06,1.29-.06,1.17,0,2.77.1,5.21.32,7.71.73,24.58,5.01,27.76,6.54.37,1.07,1.16,4.04,2.21,9.1l1.61,8.1-2.63,2.64c-2.05,2.08-5.11,5.68-6.68,8.09q-1.87,2.71-4.13,2.72h-.01ZM52.49,60.08"/>
  <path class="cls-2" d="M83.31,151.03c-6.44,0-15.88-3.77-21.06-8.41-8.9-7.82-13.71-18.82-13.23-30.2.47-11.02,5.92-21.16,14.96-27.82,6.31-4.55,11.1-6.48,18.28-7.37,1.73-.24,2.92-.34,4-.34,2.36,0,4.46.45,9.38,2.02,9.24,2.92,14.74,7.21,18.99,14.8,2.54,4.46,4.98,12.12,5.29,14.98-.8.28-2.21.66-4.17.94-8.38,1.27-18.17,6.62-22.8,12.43-5.21,6.39-8.45,15.64-7.86,22.47.25,2.77.48,5.39.36,6.46-.49.05-1.27.05-1.62.05,0,0-.53,0-.53,0Z"/>
  <path class="cls-2" d="M152.29,145.13,154.2,144.19c-.14-.92-.3-2.14-.44-3.63-1.03-12.64-11.49-26.38-22.37-29.36-.23-.06-.42-.12-.59-.17.31-.42.8-1.02,1.6-1.9,3.5-3.9,10.3-7.11,16.55-7.82.68-.08,1.4-.12,2.11-.12,11.23,0,22.9,9.34,25.49,20.4.3,1.35.48,2.2.38,2.56-.13.49-.95,1.53-1.98,2.85-1.49,1.77-4.73,5.22-7.28,7.59-3.62,3.32-10.11,7.68-13.47,9.59Z"/>
  <path class="cls-2" d="M119.37,168.51c-9.79,0-18.54-5.81-21.77-14.47-3.84-10.18-2.28-18.54,4.92-26.32,4.99-5.44,10.4-7.87,17.55-7.89,8.9,0,16.41,4.73,20.59,12.97,3.08,6.1,3.59,12.97,1.43,19.33-2.1,6.19-6.51,11.16-12.4,13.99-3.23,1.59-6.69,2.39-10.31,2.39h0Z"/>
  <path class="cls-3" d="M44.06,135.99c-5.83-1.73-16.86-5.96-21.81-8.86-6.34-3.62-14.71-10.26-20.86-16.54-.32-.34-.96-1-1.39-1.53,1.3-.73,4.15-1.81,6.16-2.58,8.58-3.25,16.83-5.08,25.2-5.59,1.93-.12,3.94-.18,5.67-.18s2.8.07,3.31.13c-.08.38-.21.92-.42,1.71-2.72,9.92-1.05,24.34,3.79,32.84.12.21.23.42.34.62Z"/>
</svg>