<?xml version="1.0" encoding="UTF-8"?>
<svg id="Layer_1" xmlns="http://www.w3.org/2000/svg" version="1.1" xmlns:xlink="http://www.w3.org/1999/xlink" viewBox="0 0 512 512">
  <!-- Generator: Adobe Illustrator 29.5.0, SVG Export Plug-In . SVG Version: 2.1.0 Build 137)  -->
  <defs>
    <style>
      .st0 {
        fill: #cbaa5c;
      }

      .st0, .st1, .st2 {
        fill-rule: evenodd;
      }

      .st1 {
        fill: #b3654f;
      }

      .st3 {
        fill: none;
      }

      .st4 {
        fill: #161715;
      }

      .st5 {
        clip-path: url(#clippath);
      }

      .st2 {
        fill: #4f7a63;
      }
    </style>
    <clipPath id="clippath">
      <rect class="st3" width="512" height="512" rx="112" ry="112"/>
    </clipPath>
  </defs>
  <g class="st5">
    <rect class="st4" width="512" height="512"/>
  </g>
  <g>
    <path class="st0" d="M266.05,354.09c-4.48,0-9.31-.27-12.8-.59.82-.56,1.78-1.2,2.89-1.9,16.31-10.04,29.35-23.31,39.84-40.57,7.37-12.2,11.23-21.35,15.32-36.26,7.51-27.44,6.65-53.81-2.58-78.4-.7-1.9-1.32-3.65-1.83-5.13,32.88,15.16,49.65,50.35,42.79,89.96-3.77,21.89-13.86,39.89-29.99,53.52-12.38,10.61-31.98,18.17-49.94,19.29-1.03.06-2.29.09-3.71.09ZM217.14,352.72c-3.13,0-6.11-.38-8.85-1.13-.54-.15-1.04-.3-1.5-.45.33-.23.69-.47,1.08-.72,6.63-4.28,11.7-9.85,14.29-15.7,1.12-2.53,2.12-3.52,6.97-5.71,17.32-8.02,33.9-25.8,43.3-46.42,4.68-10.14,10.12-33.47,10.21-43.79.04-9.38-2.63-26.04-5.29-33.02-6.77-17.45-19.06-27.45-33.73-27.45-6.12,0-12.47,1.71-18.87,5.08-12.01,6.29-23.22,17.26-32.39,31.7-3.37,5.39-5.26,7.31-9.66,9.81-.8.45-2.01,1.15-2.98,1.65-.86-2.47-2.58-6.4-3.77-8.94-1.71-3.69-2.64-7.05-2.72-8.05,1.08-3.1,9.4-15.25,15.67-22.31,16.36-18.11,34.47-28.24,52.34-29.28.76-.05,1.54-.08,2.35-.08,9.04,0,20.66,3.11,27.63,7.41,17.22,10.64,28.99,31.81,32.3,58.07,3.34,26.5-2.34,55.05-15.57,78.35-16.55,29.07-47,50.99-70.81,50.99h0ZM330.38,340.97c27.59-25.87,38.92-66.28,28.93-103.56-1.28-4.56-4.96-13.29-8.22-19.5-1.65-3.1-3.64-6.85-4.15-8.54.75-.17,1.91-.31,2.49-.38l.12-.02c.07,0,.16,0,.26,0,1.56,0,5.32.69,8.67,1.8,9.91,3.09,18.66,11.27,24.7,23.05,8.93,17.42,10.57,39.95,4.29,58.81-6.51,19.76-20.35,33.92-42.31,43.3-4.5,1.94-10.23,3.81-14.78,5.05ZM398.93,296.9c5.07-14.7,5.4-35.11.81-52.2-2.55-9.37-9.79-23.27-15.82-30.36-1.33-1.61-2.31-2.99-2.89-3.9,1.4-.93,4.21-2.21,6.43-2.5.13-.02.26-.02.41-.02,1.53,0,4.72.54,7.64,1.53,14.43,4.7,26.07,21.66,27.71,40.35,1.63,16.81-8.55,36.45-24.29,47.11ZM435.27,252.52c-.03-.36-.06-.75-.09-1.16-1.32-19.6-10.18-36.22-25.61-48.06-1.69-1.25-3.05-2.5-3.84-3.33,1.1-.82,3.56-2.07,7.1-2.68.81-.14,1.65-.21,2.5-.21,5.59,0,11.77,2.92,17.4,8.23,13.57,12.84,15.39,32.33,4.23,45.32-.61.7-1.17,1.32-1.69,1.88ZM452.88,215.6c-.67-1.48-1.59-3.4-2.87-5.89-5.25-9.89-12.6-17.22-20.71-20.68-1.12-.48-3.08-1.32-3.82-1.84.27-.82,1.26-2.53,1.83-3.51,3.36-5.82,5.84-8.09,10.22-9.35.89-.26,1.95-.4,3.08-.4,3.15,0,6.57,1.02,8.7,2.59,2.63,1.98,5.91,8.41,6.56,14.83.65,7.13-1.23,18.27-2.99,24.25Z"/>
    <path class="st2" d="M127.77,234.28c-3.65-13.23-3.88-31.38-.61-47.39l.18-.92c.49-2.49,1-5.04,1.44-6.24,1.3.67,4.04,2.79,6.92,5l.68.53c14.15,10.83,26.94,28.46,31.84,43.86.74,2.44,1.29,4.56,1.62,6.06-1.16-.25-2.69-.65-4.62-1.22-5.32-1.51-10.12-2.25-14.68-2.25-5.41,0-10.72.99-16.7,3.11l-5.41,1.84-.66-2.39Z"/>
    <path class="st2" d="M103.02,258.04c-.43,0-.9,0-1.42-.02q-4.07-.16-6.45-3.05c-5.86-6.92-15.46-25.74-19.05-37.32-.14-.45-.23-.78-.29-1.04.32-.04.77-.06,1.42-.06,1.29,0,3.07.11,5.76.36,8.52.8,27.18,5.54,30.7,7.24.4,1.18,1.28,4.46,2.44,10.06l1.78,8.96-2.91,2.92c-2.27,2.31-5.65,6.28-7.39,8.95q-2.07,3-4.57,3h-.01ZM114.05,224.34"/>
    <path class="st1" d="M148.12,324.92c-7.12,0-17.57-4.17-23.28-9.3-9.84-8.64-15.17-20.81-14.63-33.4.52-12.19,6.55-23.4,16.54-30.76,6.98-5.03,12.28-7.17,20.22-8.15,1.91-.27,3.22-.38,4.42-.38,2.61,0,4.94.5,10.37,2.23,10.22,3.23,16.3,7.97,21,16.36,2.81,4.94,5.51,13.4,5.85,16.56-.88.31-2.45.73-4.61,1.04-9.27,1.41-20.09,7.32-25.21,13.74-5.76,7.06-9.34,17.29-8.69,24.85.27,3.06.53,5.96.4,7.14-.54.05-1.4.06-1.79.06,0,0-.58,0-.58,0Z"/>
    <path class="st1" d="M224.4,318.39,226.52,317.35c-.16-1.02-.33-2.36-.49-4.01-1.14-13.98-12.7-29.17-24.74-32.47-.25-.07-.47-.13-.65-.19.34-.46.88-1.13,1.77-2.1,3.87-4.31,11.39-7.86,18.31-8.65.76-.08,1.54-.13,2.33-.13,12.42,0,25.33,10.33,28.19,22.55.33,1.49.53,2.44.43,2.83-.15.54-1.05,1.7-2.19,3.15-1.65,1.96-5.23,5.78-8.05,8.39-4,3.67-11.18,8.5-14.89,10.61Z"/>
    <path class="st1" d="M187.99,344.24c-10.83,0-20.5-6.43-24.07-16-4.25-11.26-2.52-20.51,5.44-29.11,5.52-6.02,11.5-8.7,19.41-8.72,9.85,0,18.15,5.23,22.77,14.34,3.41,6.75,3.97,14.34,1.58,21.37-2.33,6.85-7.2,12.34-13.72,15.47-3.57,1.76-7.4,2.64-11.4,2.64h0Z"/>
    <path class="st2" d="M104.72,308.28c-6.44-1.92-18.65-6.59-24.12-9.8-7.01-4-16.27-11.35-23.07-18.29-.36-.37-1.06-1.11-1.54-1.69,1.44-.8,4.59-2.01,6.81-2.85,9.49-3.59,18.61-5.61,27.87-6.19,2.13-.13,4.36-.2,6.27-.2s3.09.08,3.66.14c-.09.42-.23,1.02-.47,1.89-3,10.96-1.16,26.91,4.19,36.31.13.23.26.46.38.68Z"/>
  </g>
</svg>